<?xml version="1.0" standalone="no"?>
<!DOCTYPE svg PUBLIC "-//W3C//DTD SVG 20010904//EN"
 "http://www.w3.org/TR/2001/REC-SVG-20010904/DTD/svg10.dtd">
<svg version="1.0" xmlns="http://www.w3.org/2000/svg"
 width="347.000000pt" height="258.000000pt" viewBox="0 0 347.000000 258.000000"
 preserveAspectRatio="xMidYMid meet">

<g transform="translate(0.000000,258.000000) scale(0.100000,-0.100000)"
fill="#000000" stroke="none">
<path d="M87 2573 c-4 -3 -24 -9 -44 -12 -30 -5 -39 -11 -41 -30 -4 -23 -2
-24 40 -17 23 4 62 10 86 13 49 7 54 19 12 28 -16 4 -30 11 -30 16 0 10 -14
12 -23 2z"/>
<path d="M301 2558 c-46 -10 -86 -19 -88 -22 -2 -2 14 -7 36 -11 23 -4 41 -10
41 -14 0 -4 -44 -16 -97 -26 -101 -19 -101 -18 -28 -46 29 -11 25 -13 -67 -32
-106 -22 -122 -38 -62 -57 38 -13 35 -26 -6 -32 -22 -3 -25 -9 -28 -45 l-3
-41 91 23 c51 13 93 25 96 27 2 2 -19 12 -46 22 -28 10 -50 21 -50 25 0 4 47
18 105 30 57 13 102 27 100 31 -2 4 -25 13 -50 20 -25 7 -43 15 -41 18 3 2 47
14 98 26 l93 23 -42 13 c-24 7 -43 16 -43 20 0 3 36 12 80 19 45 8 78 16 75
20 -4 3 -23 10 -43 16 -29 9 -55 7 -121 -7z"/>
<path d="M572 2565 c-68 -17 -73 -22 -28 -30 20 -4 38 -11 41 -15 3 -4 -32
-17 -78 -27 l-82 -20 48 -14 c26 -7 47 -16 47 -19 0 -4 -46 -17 -102 -30
l-103 -23 58 -19 c31 -11 55 -23 53 -27 -3 -4 -50 -18 -105 -31 -56 -13 -101
-27 -101 -30 0 -4 21 -15 48 -25 26 -10 50 -20 54 -24 4 -3 -50 -21 -119 -40
-137 -38 -139 -40 -47 -78 24 -10 44 -20 44 -23 0 -3 -45 -18 -100 -34 l-100
-29 0 -47 c0 -41 3 -49 23 -54 l22 -7 -23 -11 c-20 -10 -22 -18 -22 -85 0 -40
3 -73 8 -73 13 0 192 65 192 70 0 3 -34 23 -75 45 -41 22 -75 43 -75 46 0 3
68 27 151 53 83 26 148 50 146 53 -3 2 -36 19 -73 37 l-69 33 100 31 c55 17
112 34 128 37 15 4 27 11 27 15 0 4 -27 18 -60 30 -34 13 -58 25 -56 27 3 3
55 20 116 37 l110 32 -55 19 c-31 10 -58 22 -60 26 -3 3 38 17 90 30 52 12 95
26 95 29 0 3 -23 12 -50 19 -28 7 -48 16 -45 20 2 4 44 16 92 26 l88 19 -60
16 c-65 18 -64 19 38 41 35 7 54 16 48 22 -15 15 -123 17 -179 2z"/>
<path d="M852 2570 c-48 -11 -48 -17 0 -25 70 -12 66 -17 -28 -39 l-89 -22 58
-13 c31 -8 57 -17 57 -21 0 -4 -36 -15 -80 -25 -45 -10 -83 -22 -85 -25 -3 -4
23 -16 58 -25 l62 -18 -50 -15 c-27 -7 -77 -22 -110 -31 l-60 -18 73 -23 c40
-12 71 -24 69 -26 -2 -2 -50 -18 -108 -35 -57 -18 -108 -35 -112 -39 -5 -4 20
-17 55 -30 35 -13 67 -26 71 -31 5 -4 -53 -27 -129 -51 l-137 -44 84 -41 c98
-47 108 -36 -99 -109 l-133 -47 83 -48 c46 -27 87 -49 91 -49 29 -1 -25 -25
-183 -85 -99 -38 -180 -72 -180 -77 0 -4 13 -16 28 -26 46 -28 162 -113 162
-118 0 -3 -15 -11 -32 -18 -18 -8 -68 -28 -111 -46 l-77 -32 0 -149 c0 -82 4
-149 9 -149 5 0 62 26 127 58 66 32 167 80 226 107 60 27 105 52 100 56 -4 3
-58 43 -120 89 l-113 82 48 22 c26 12 112 49 190 81 79 33 143 63 143 67 0 3
-45 32 -100 64 -55 32 -100 61 -100 64 0 4 17 12 38 18 20 7 93 33 161 60
l124 49 -92 43 c-50 24 -91 46 -91 49 0 3 51 24 113 45 61 22 123 43 137 48
22 8 16 12 -59 43 -46 19 -86 37 -88 39 -3 3 51 22 119 43 l123 39 -70 23
c-38 13 -74 27 -78 31 -8 7 29 21 146 52 26 6 47 15 47 19 0 4 -24 13 -52 19
-101 24 -100 25 45 61 26 6 49 15 52 19 2 4 -23 13 -56 20 -33 7 -56 16 -52
20 4 4 42 16 83 26 l75 18 -55 16 c-62 18 -60 22 29 40 48 10 60 15 45 21 -25
10 -159 9 -202 -1z"/>
<path d="M1110 2570 c-12 -8 -12 -10 5 -10 28 0 98 -20 92 -27 -3 -2 -36 -13
-74 -22 l-68 -18 63 -13 c34 -7 62 -16 62 -20 0 -4 -36 -15 -80 -25 -43 -10
-77 -21 -75 -25 2 -4 29 -13 60 -20 31 -7 58 -17 60 -21 3 -3 -36 -17 -85 -30
-50 -13 -90 -26 -90 -29 0 -3 30 -14 68 -24 37 -11 71 -21 76 -24 5 -3 -37
-20 -93 -38 -56 -17 -105 -34 -107 -37 -3 -3 33 -18 80 -33 47 -16 83 -31 78
-35 -4 -3 -58 -23 -119 -44 -62 -21 -113 -41 -113 -44 0 -3 41 -22 90 -41 50
-19 90 -38 90 -41 0 -3 -58 -27 -128 -53 -70 -26 -134 -51 -140 -55 -8 -5 27
-26 92 -57 58 -27 106 -52 106 -55 0 -4 -51 -28 -112 -54 -191 -79 -208 -87
-208 -94 0 -3 54 -37 120 -75 66 -38 120 -70 120 -72 0 -2 -33 -19 -72 -37
-148 -70 -328 -158 -328 -161 0 -2 63 -50 141 -106 116 -84 138 -105 127 -115
-11 -10 -175 -101 -443 -244 l-39 -21 -25 23 c-14 12 -73 67 -131 121 l-105
99 -3 -188 c-1 -103 0 -190 2 -193 3 -2 59 25 125 62 66 36 124 66 128 66 4
-1 80 -71 168 -156 l160 -155 -30 -22 c-27 -20 -196 -128 -458 -291 -84 -53
-97 -64 -97 -88 l0 -28 1053 0 c1041 0 1054 0 1072 20 23 25 43 25 75 0 24
-19 44 -20 492 -20 l467 0 27 47 c15 27 29 50 30 51 3 4 90 -45 121 -69 12 -9
19 -19 16 -23 -3 -3 21 -6 55 -6 l62 0 0 257 0 258 -62 -96 c-35 -52 -91 -139
-126 -192 -35 -53 -67 -97 -72 -97 -5 0 -85 42 -177 94 -93 51 -195 108 -228
126 -33 18 -99 55 -148 82 l-88 50 32 36 c29 34 90 99 232 250 27 29 48 54 46
55 -2 2 -115 56 -251 121 -201 97 -246 122 -236 133 6 7 64 57 129 109 66 53
119 99 119 103 0 4 -84 42 -187 85 -104 44 -194 82 -202 86 -9 5 25 33 104 85
86 56 114 80 103 86 -8 4 -79 31 -159 60 -79 28 -147 55 -151 58 -4 4 32 28
80 53 142 77 144 67 -17 118 -77 25 -141 48 -141 51 0 4 38 23 85 44 47 21 85
41 85 45 0 4 -52 22 -115 40 -63 18 -115 36 -115 39 0 4 34 20 75 36 41 15 75
31 75 34 0 4 -42 17 -92 30 -51 13 -97 27 -101 31 -8 7 90 50 113 50 6 0 10 3
10 8 0 4 -37 16 -82 26 -100 23 -113 32 -62 42 49 9 99 30 88 36 -5 3 -38 11
-74 18 -36 7 -69 16 -73 20 -5 4 14 13 42 20 28 7 53 15 56 19 2 5 -27 14 -66
20 -39 7 -67 16 -64 20 4 3 25 11 48 18 38 10 32 11 -68 11 -106 0 -108 -1
-58 -12 28 -6 55 -14 58 -18 4 -3 -19 -12 -50 -19 -63 -14 -58 -20 27 -39 32
-7 55 -16 53 -20 -2 -4 -29 -13 -60 -20 -31 -7 -58 -17 -60 -20 -3 -4 31 -15
75 -24 44 -10 80 -21 80 -25 0 -4 -31 -15 -70 -26 -38 -11 -70 -22 -70 -25 0
-3 24 -11 53 -18 98 -23 129 -34 121 -41 -5 -5 -44 -21 -87 -36 l-79 -28 104
-30 c56 -16 107 -32 111 -36 4 -4 -31 -23 -78 -41 -47 -18 -88 -36 -90 -40 -2
-3 50 -24 115 -45 66 -21 120 -41 120 -44 0 -3 -44 -26 -98 -50 -53 -25 -100
-47 -104 -50 -4 -4 58 -30 137 -60 80 -29 145 -55 145 -57 0 -1 -51 -30 -112
-64 -62 -34 -117 -65 -121 -69 -4 -5 27 -23 70 -41 43 -18 112 -47 153 -65 41
-18 84 -35 94 -39 25 -9 24 -10 -129 -106 -71 -45 -133 -84 -137 -88 -3 -4 88
-52 203 -107 116 -55 212 -103 214 -106 2 -3 -59 -57 -137 -120 -78 -63 -154
-125 -171 -139 l-29 -26 214 -120 c117 -67 233 -132 257 -145 25 -13 46 -29
48 -36 3 -7 -84 -102 -192 -212 -145 -147 -201 -198 -213 -194 -20 8 -554 365
-550 368 2 1 64 51 138 110 74 59 170 134 212 168 42 34 74 65 70 69 -4 3 -99
58 -211 122 -113 64 -208 119 -212 123 -5 5 71 60 167 123 l176 115 -183 88
-184 89 35 20 c19 11 86 47 149 80 80 43 110 63 100 69 -8 4 -77 34 -153 66
l-139 57 129 61 129 61 -55 21 c-30 11 -84 31 -120 43 -36 13 -69 26 -73 30
-5 4 40 27 99 51 124 49 125 44 -28 91 -43 12 -78 26 -78 29 0 4 41 21 90 38
50 18 90 34 90 36 0 2 -40 15 -90 31 -49 15 -90 30 -90 34 0 4 36 18 79 31 44
13 74 27 68 30 -7 4 -45 14 -85 24 -41 10 -70 21 -65 25 4 3 36 15 71 25 70
21 67 27 -20 45 -32 6 -58 15 -58 19 0 5 27 14 60 21 63 13 80 29 33 31 -16 0
-46 6 -68 13 l-40 12 60 16 c59 16 57 16 -205 17 -156 0 -271 -3 -280 -9z
m359 -11 c72 -13 70 -16 -24 -42 -49 -14 -50 -14 -20 -22 17 -4 48 -12 70 -17
l40 -11 -80 -22 -80 -22 41 -12 c22 -6 55 -14 72 -17 29 -6 55 -23 35 -24 -4
-1 -44 -11 -87 -24 l-80 -23 57 -17 c31 -9 70 -19 87 -22 16 -4 30 -10 30 -15
0 -5 -40 -21 -90 -36 -80 -24 -114 -43 -77 -43 25 0 177 -54 170 -60 -5 -4
-28 -14 -53 -23 -25 -9 -72 -26 -104 -38 l-60 -22 118 -42 118 -41 -123 -51
c-68 -28 -124 -54 -124 -58 0 -4 52 -28 116 -54 64 -25 118 -49 120 -54 2 -4
-59 -36 -135 -72 -77 -36 -142 -67 -144 -70 -3 -3 63 -38 147 -78 148 -71 152
-74 129 -89 -13 -8 -94 -52 -180 -98 l-157 -83 182 -104 c100 -58 183 -106
185 -108 2 -1 -28 -22 -65 -46 -236 -149 -364 -229 -369 -229 -2 0 -86 57
-185 126 l-181 126 39 22 c21 12 116 64 211 116 148 82 170 97 156 107 -10 7
-78 47 -152 89 l-135 77 152 73 c83 40 161 76 171 79 11 4 20 10 20 14 0 5
-56 34 -124 66 -69 32 -123 61 -121 64 2 3 62 31 134 61 72 30 130 58 128 64
-2 5 -47 27 -100 50 -53 22 -97 43 -97 46 0 3 57 26 127 51 l127 46 -80 28
c-43 16 -90 33 -104 38 -22 8 -13 14 85 47 122 41 122 41 8 75 -35 10 -63 21
-63 24 0 4 41 18 90 31 50 13 90 27 90 30 0 3 -34 14 -75 25 -41 10 -72 21
-70 25 3 5 36 16 75 25 39 9 72 21 75 25 3 4 -24 14 -60 21 -36 7 -65 16 -65
19 0 3 35 15 78 25 l77 19 -63 14 c-35 8 -61 16 -58 19 8 8 106 31 135 32 13
1 54 -4 90 -10z m-251 -1855 c42 -30 122 -86 177 -124 106 -73 136 -95 168
-121 19 -15 18 -17 -44 -64 -35 -27 -86 -68 -114 -91 -114 -95 -347 -264 -365
-264 -10 0 -71 50 -136 113 -64 61 -140 133 -168 158 -28 26 -68 62 -89 80
l-37 34 257 168 c142 92 261 167 266 167 4 0 42 -25 85 -56z"/>
<path d="M2098 2567 c28 -5 52 -13 52 -17 0 -4 -24 -14 -52 -22 l-53 -15 78
-18 c42 -9 77 -20 77 -24 0 -4 -26 -14 -57 -21 -67 -15 -60 -21 50 -45 43 -10
75 -21 70 -25 -4 -4 -34 -15 -67 -24 -32 -10 -56 -20 -53 -22 3 -3 47 -16 97
-29 50 -13 94 -26 97 -29 3 -3 -5 -10 -18 -15 -98 -38 -121 -49 -113 -53 5 -2
57 -18 117 -34 59 -15 107 -31 107 -34 0 -3 -35 -22 -77 -41 l-78 -36 139 -44
c92 -29 134 -46 125 -52 -8 -4 -49 -27 -91 -51 l-78 -42 160 -54 c88 -30 160
-57 160 -60 0 -3 -44 -33 -96 -68 -53 -35 -94 -65 -92 -68 3 -2 83 -34 179
-70 96 -36 178 -69 182 -73 5 -5 -39 -48 -97 -97 -58 -48 -106 -91 -106 -94 0
-3 98 -47 218 -98 120 -51 223 -97 231 -101 10 -6 1 -22 -36 -62 -122 -132
-183 -201 -183 -208 0 -7 558 -281 573 -281 4 0 7 90 7 201 l0 200 -37 15
c-156 64 -293 128 -293 138 1 6 41 56 90 111 86 96 89 100 67 111 -12 6 -109
44 -214 84 -106 40 -193 76 -193 80 0 3 38 37 85 76 47 38 85 71 85 74 0 3
-78 32 -172 64 -95 33 -177 62 -181 66 -5 4 29 31 74 60 60 38 79 54 68 60 -8
4 -70 25 -139 45 -69 20 -131 41 -139 45 -9 5 11 21 65 50 l78 44 -132 35
c-73 19 -132 38 -132 42 0 4 29 20 65 35 36 16 61 31 57 35 -4 3 -46 16 -93
27 -142 35 -142 35 -70 62 34 12 59 26 54 30 -4 4 -44 15 -88 25 -44 10 -84
21 -88 25 -5 4 18 17 50 27 l58 20 -72 16 c-40 10 -81 17 -92 17 -38 0 -21 18
29 31 27 7 47 15 45 19 -2 4 -36 12 -75 19 -75 14 -79 23 -20 39 28 7 16 9
-65 9 -95 0 -98 0 -47 -10z"/>
<path d="M2398 2565 c44 -11 62 -11 95 -1 41 13 39 13 -53 13 l-95 1 53 -13z"/>
<path d="M2631 2575 c3 -2 29 -8 59 -12 62 -9 67 -23 13 -40 -21 -6 -35 -12
-31 -12 20 -2 155 -32 168 -37 10 -4 0 -12 -29 -23 -24 -10 -40 -20 -35 -23 5
-3 47 -14 94 -23 47 -10 89 -21 93 -25 5 -4 -12 -16 -37 -26 -25 -11 -46 -22
-46 -25 0 -3 36 -14 81 -24 44 -9 96 -21 116 -27 l36 -10 -54 -31 -54 -31 128
-32 c123 -31 154 -42 132 -50 -5 -2 -30 -17 -54 -33 l-44 -30 54 -15 c30 -8
90 -24 134 -36 44 -11 88 -23 98 -26 15 -5 17 2 17 50 l0 55 -37 10 c-21 6
-62 15 -90 21 -29 7 -53 15 -53 18 0 4 21 20 48 36 56 34 59 32 -105 67 -62
13 -113 26 -113 29 0 3 21 17 48 29 l47 24 -108 23 c-60 13 -114 25 -120 27
-7 2 8 14 33 27 l45 24 -90 18 c-125 25 -128 27 -76 47 l45 18 -40 7 c-155 27
-163 31 -96 52 33 11 25 12 -72 13 -60 1 -107 -1 -105 -4z"/>
<path d="M2930 2570 c19 -4 52 -11 73 -14 45 -8 48 -22 7 -31 -46 -10 -28 -21
57 -35 108 -17 118 -24 63 -46 l-45 -18 108 -22 c59 -12 110 -24 113 -27 3 -3
-14 -16 -38 -28 l-43 -23 105 -22 c140 -31 140 -31 140 9 l0 34 -77 14 -78 15
38 19 c39 20 48 35 21 35 -32 0 -194 33 -194 39 0 4 17 13 38 21 l37 14 -70
13 c-38 7 -86 15 -105 19 l-35 7 40 18 40 18 -115 0 c-80 -1 -104 -3 -80 -9z"/>
<path d="M3185 2575 c6 -2 44 -9 84 -16 l75 -11 -35 -18 c-39 -21 -35 -23 62
-39 93 -16 99 -15 99 13 0 22 -5 25 -62 31 l-62 7 35 19 34 18 -120 0 c-66 0
-115 -2 -110 -4z"/>
<path d="M2410 2527 l-45 -10 40 -12 c22 -7 60 -15 84 -19 39 -6 43 -5 37 11
-6 17 -5 17 8 1 12 -16 17 -17 52 -4 l39 13 -60 12 c-96 19 -107 20 -155 8z"/>
<path d="M0 2470 c0 -18 4 -21 23 -16 12 3 29 6 37 6 13 1 13 2 0 9 -8 5 -25
12 -37 15 -19 6 -23 4 -23 -14z"/>
<path d="M2481 2450 c-24 -9 -40 -19 -35 -22 5 -4 46 -14 92 -24 45 -9 82 -20
82 -24 0 -3 -25 -14 -55 -25 -31 -10 -52 -21 -48 -25 4 -4 54 -17 111 -30 56
-13 102 -26 102 -29 0 -4 -27 -17 -61 -30 -38 -16 -55 -27 -47 -32 7 -4 60
-19 118 -34 58 -15 109 -31 113 -35 4 -4 -22 -23 -58 -42 l-66 -35 148 -42
149 -43 63 40 c35 22 59 42 54 44 -4 3 -67 20 -140 38 -72 19 -129 38 -127 42
3 5 30 21 61 36 l55 28 -119 29 c-65 15 -122 31 -128 33 -5 3 18 18 50 32 l59
26 -112 24 c-62 14 -112 27 -112 30 0 3 23 14 50 24 28 10 49 20 47 22 -3 4
-198 45 -201 43 0 -1 -21 -9 -45 -19z"/>
<path d="M3439 2441 l-22 -18 26 -5 c23 -4 27 -2 27 18 0 29 -2 29 -31 5z"/>
<path d="M3428 2232 c-33 -20 -36 -32 -9 -32 11 0 26 -3 35 -6 13 -5 16 1 16
25 0 35 -4 36 -42 13z"/>
<path d="M0 2159 c0 -15 4 -19 16 -15 9 3 21 6 27 6 13 1 -22 30 -35 30 -4 0
-8 -9 -8 -21z"/>
<path d="M2957 1928 c-37 -24 -67 -46 -67 -49 0 -3 75 -29 167 -59 l167 -53
-40 -36 c-21 -20 -54 -49 -73 -64 -18 -15 -31 -30 -28 -34 7 -7 366 -133 379
-133 4 0 8 43 8 95 l0 94 -115 36 c-63 20 -115 39 -114 43 0 4 27 29 60 56 32
27 58 50 57 51 -6 5 -312 95 -323 95 -6 0 -41 -19 -78 -42z"/>
<path d="M3420 1920 c-25 -21 -43 -40 -40 -42 9 -7 84 -27 88 -24 2 2 2 26 0
54 l-3 51 -45 -39z"/>
<path d="M3397 1384 c-38 -40 -64 -74 -60 -77 21 -13 125 -49 129 -44 3 2 3
47 2 98 l-3 94 -68 -71z"/>
</g>
</svg>
